<svg width="234" height="331" viewBox="0 0 234 331" fill="none" xmlns="http://www.w3.org/2000/svg">
<path d="M18.5284 251.299L151.345 251.299C161.577 251.299 169.873 242.908 169.873 232.551L169.873 98.161C169.873 87.8044 161.577 79.4127 151.345 79.4127L37.0568 79.4127V65.6789L70.3387 32.0046C77.5747 24.6802 77.5747 12.8113 70.3387 5.48949C63.1003 -1.82983 51.3706 -1.82983 44.1346 5.48949L5.42511 44.6534C1.95166 48.1706 0 52.9401 0 57.9122L0 98.161L0 121.159L0 232.554C0 242.908 8.29578 251.299 18.5284 251.299ZM132.816 116.909L132.816 213.805L37.0568 213.805L37.0568 121.159V116.909L132.816 116.909Z" fill="#CDA2FF"/>
<path d="M214.603 78.9815L81.7862 78.9815C71.5511 78.9815 63.2578 87.3732 63.2578 97.7298L63.2578 232.122C63.2578 242.479 71.5511 250.871 81.7862 250.871L196.074 250.871V264.604L162.792 298.279C155.556 305.603 155.556 317.472 162.792 324.794C166.412 328.453 171.155 330.283 175.896 330.283C180.636 330.283 185.38 328.451 188.999 324.794L227.706 285.627C231.179 282.11 233.131 277.343 233.131 272.369V232.12V209.127L233.131 97.7273C233.131 87.3732 224.838 78.9815 214.603 78.9815ZM100.317 213.374L100.317 116.478L196.077 116.478L196.077 209.13V213.374L100.317 213.374Z" fill="#87CEEB"/>
</svg>
